<svg xmlns="http://www.w3.org/2000/svg" width="14.962" height="30.367" viewBox="0 0 14.962 30.367">
  <g id="Group_23" data-name="Group 23" transform="translate(0.004 -0.001)">
    <g id="Group_22" data-name="Group 22" transform="translate(-0.004 0.001)">
      <path id="Path_44" data-name="Path 44" d="M12.2.468q-1.991,2.3-3.985,4.6L1.9,12.364c-.481.557-.965,1.114-1.446,1.671a1.674,1.674,0,0,0,0,2.3q1.991,2.3,3.985,4.6l6.318,7.3c.481.557.965,1.114,1.446,1.671a1.633,1.633,0,0,0,2.3,0,1.664,1.664,0,0,0,0-2.3Q12.5,25.3,10.511,23l-6.318-7.3c-.481-.557-.965-1.114-1.446-1.671v2.3q1.991-2.3,3.985-4.6l6.318-7.3c.481-.557.965-1.114,1.446-1.671a1.658,1.658,0,0,0,0-2.3,1.645,1.645,0,0,0-2.3,0Z" transform="translate(0.004 -0.001)" fill="#5d7780"/>
    </g>
  </g>
</svg>
