<svg xmlns="http://www.w3.org/2000/svg" width="28" height="29" viewBox="0 0 28 29">
  <g id="socMedia" transform="translate(0 -0.126)">
    <g id="Rectangle" transform="translate(0 0.126)" fill="#fff" stroke="#5d7780" stroke-miterlimit="10" stroke-width="1">
      <rect width="28" height="29" rx="5" stroke="none"/>
      <rect x="0.5" y="0.5" width="27" height="28" rx="4.5" fill="none"/>
    </g>
    <g id="Rc4VvS.tif_1_" transform="translate(9.222 5.023)">
      <g id="Group_2" data-name="Group 2" transform="translate(0 0)">
        <g id="Group_1" data-name="Group 1" transform="translate(0 0)">
          <path id="Path_1" data-name="Path 1" d="M9.961.447V3.44a.173.173,0,0,1-.076.008H8.19a3.429,3.429,0,0,0-.451.026,1.863,1.863,0,0,0-.5.129,1.067,1.067,0,0,0-.421.313,1.2,1.2,0,0,0-.218.452A2.515,2.515,0,0,0,6.531,5q0,1.07,0,2.14c0,.011,0,.022,0,.032a.028.028,0,0,0,.03.031H9.777c.069,0,.07,0,.061.068q-.025.194-.05.388-.055.424-.11.849l-.118.922q-.06.467-.12.933c-.007.054-.014.108-.022.162-.005.032-.01.036-.042.037H6.559a.027.027,0,0,0-.028.029c0,.02,0,.041,0,.061v8.421c0,.027,0,.054,0,.082H3.064c0-.029,0-.057,0-.085V10.662c0-.1.01-.1-.1-.1H.17V7.207H3.023c.032,0,.038-.008.04-.039s0-.032,0-.049q0-1.17,0-2.34c0-.221.009-.442.031-.663a5.35,5.35,0,0,1,.133-.783,4.256,4.256,0,0,1,.445-1.117,3.589,3.589,0,0,1,1.1-1.181A3.964,3.964,0,0,1,5.895.512a4.842,4.842,0,0,1,.717-.15A4.577,4.577,0,0,1,7.131.318c.375-.008.75,0,1.125.009.076,0,.152,0,.228.008l.4.022c.147.008.293.016.439.027s.3.024.442.039A1.069,1.069,0,0,1,9.961.447Z" transform="translate(-0.17 -0.314)" fill="#5d7780"/>
        </g>
      </g>
    </g>
  </g>
</svg>
