<svg id="socMedia" xmlns="http://www.w3.org/2000/svg" width="49" height="50" viewBox="0 0 49 50">
  <g id="Rectangle" fill="#fff" stroke="#5d7780" stroke-miterlimit="10" stroke-width="1">
    <rect width="49" height="50" rx="5" stroke="none"/>
    <rect x="0.5" y="0.5" width="48" height="49" rx="4.5" fill="none"/>
  </g>
  <g id="Rc4VvS.tif_1_" transform="translate(15.83 8.644)">
    <g id="Group_2" data-name="Group 2" transform="translate(0.17 0.314)">
      <g id="Group_1" data-name="Group 1" transform="translate(0 0)">
        <path id="Path_1" data-name="Path 1" d="M17.158.546V5.738a.3.3,0,0,1-.132.014H14.084A5.949,5.949,0,0,0,13.3,5.8a3.232,3.232,0,0,0-.859.224,1.85,1.85,0,0,0-.73.543,2.086,2.086,0,0,0-.378.784,4.364,4.364,0,0,0-.128,1.1q0,1.856,0,3.713c0,.019,0,.038,0,.056a.049.049,0,0,0,.053.053h5.579c.119,0,.122,0,.107.118q-.043.336-.087.673-.1.736-.191,1.473-.1.8-.205,1.6t-.209,1.619c-.012.093-.024.187-.039.28-.009.056-.018.062-.073.065-.031,0-.061,0-.092,0h-4.7c-.031,0-.061,0-.092,0a.047.047,0,0,0-.049.05c0,.035,0,.071,0,.106V32.871c0,.047,0,.094,0,.142H5.191c0-.05,0-.1,0-.148v-14.6c0-.181.017-.166-.169-.166H.17V12.274H5.035c.028,0,.057,0,.085,0,.056,0,.066-.013.069-.067,0-.028,0-.056,0-.085q0-2.03,0-4.06c0-.384.016-.768.053-1.15a9.282,9.282,0,0,1,.23-1.358,7.385,7.385,0,0,1,.771-1.938,6.226,6.226,0,0,1,1.9-2.05A6.878,6.878,0,0,1,10.1.658,8.4,8.4,0,0,1,11.346.4a7.941,7.941,0,0,1,.9-.077c.65-.014,1.3-.007,1.951.016.131,0,.264.007.4.014.233.012.466.024.7.038.254.015.508.028.762.047s.512.042.767.068A1.854,1.854,0,0,1,17.158.546Z" transform="translate(-0.17 -0.314)" fill="#5d7780"/>
      </g>
    </g>
  </g>
</svg>
