<svg id="socMedia" xmlns="http://www.w3.org/2000/svg" width="49" height="50" viewBox="0 0 49 50">
  <g id="Rectangle" fill="#fff" stroke="#5d7780" stroke-miterlimit="10" stroke-width="1">
    <rect width="49" height="50" rx="5" stroke="none"/>
    <rect x="0.5" y="0.5" width="48" height="49" rx="4.5" fill="none"/>
  </g>
  <g id="XlfK9s.tif_1_" transform="translate(7.99 8)">
    <g id="Group_3" data-name="Group 3" transform="translate(0.01)">
      <path id="Path_2" data-name="Path 2" d="M9.746,0h14.1c.555.065,1.111.118,1.663.2a8.881,8.881,0,0,1,7.726,7.07,18.943,18.943,0,0,1,.378,4.113q.017,5.4,0,10.8a23.871,23.871,0,0,1-.223,3.289,8.9,8.9,0,0,1-7.041,7.756,14.91,14.91,0,0,1-3.273.36q-6.266.037-12.53,0A18.666,18.666,0,0,1,8.1,33.376,8.874,8.874,0,0,1,.358,26.324C.169,25.5.12,24.668.01,23.838V9.737c.065-.554.118-1.108.2-1.66A8.871,8.871,0,0,1,7.592.293C8.3.157,9.027.1,9.746,0Zm7.07,30.434c1.268,0,2.536.006,3.8,0,1.286-.007,2.57-.027,3.855-.126a5.86,5.86,0,0,0,5.67-4.761,10.3,10.3,0,0,0,.25-2.163c.051-4.771.2-9.546-.1-14.314a5.78,5.78,0,0,0-4.787-5.635,12.465,12.465,0,0,0-2.5-.259c-3.095-.026-6.191-.049-9.285-.038a32.414,32.414,0,0,0-5.411.253A5.653,5.653,0,0,0,3.469,7.948,10.323,10.323,0,0,0,3.2,10.219c-.052,4.716-.189,9.433.086,14.146A5.954,5.954,0,0,0,9.211,30.31C11.745,30.494,14.281,30.4,16.815,30.434Z" transform="translate(-0.01)" fill="#5d7780"/>
      <path id="Path_3" data-name="Path 3" d="M89.435,80.651a8.7,8.7,0,1,1-9.565-8.36A8.72,8.72,0,0,1,89.435,80.651Zm-8.689-5.21a5.491,5.491,0,1,0,5.481,5.516A5.424,5.424,0,0,0,80.746,75.441Z" transform="translate(-63.948 -64.145)" fill="#5d7780"/>
      <path id="Path_4" data-name="Path 4" d="M210.82,53.2A2.065,2.065,0,0,1,212.9,51.11a2.092,2.092,0,0,1,2.08,2.108,2.081,2.081,0,0,1-4.163-.015Z" transform="translate(-187.148 -45.371)" fill="#5d7780"/>
    </g>
  </g>
</svg>
