<svg id="socMedia" xmlns="http://www.w3.org/2000/svg" width="49" height="50" viewBox="0 0 49 50">
  <g id="Rectangle" fill="#fff" stroke="#5d7780" stroke-miterlimit="10" stroke-width="1">
    <rect width="49" height="50" rx="5" stroke="none"/>
    <rect x="0.5" y="0.5" width="48" height="49" rx="4.5" fill="none"/>
  </g>
  <g id="Qfjkpc.tif_1_" transform="translate(8 8.002)">
    <g id="Group_5" data-name="Group 5" transform="translate(0 -0.002)">
      <path id="Path_6" data-name="Path 6" d="M0,30.463V2.744C.035,2.62.069,2.5.106,2.372A3.3,3.3,0,0,1,3.271,0Q16.6,0,29.92,0a3.284,3.284,0,0,1,3.262,3.262q.006,13.341,0,26.682a2.853,2.853,0,0,1-.125.861,3.368,3.368,0,0,1-2.621,2.378H2.72A3.413,3.413,0,0,1,0,30.463Zm16.648-27H15.612q-5.132,0-10.265,0a1.813,1.813,0,0,0-1.713.954,2.349,2.349,0,0,0-.24,1.192V27.789c0,.087,0,.173,0,.259a1.863,1.863,0,0,0,1.948,1.87q11.284,0,22.568,0a1.824,1.824,0,0,0,1.928-1.934q0-11.3,0-22.6a2.111,2.111,0,0,0-.047-.546,1.8,1.8,0,0,0-1.847-1.369Q22.3,3.464,16.648,3.467Z" transform="translate(0 0.002)" fill="#5d7780"/>
      <path id="Path_7" data-name="Path 7" d="M132.881,124.414a4.314,4.314,0,0,1,2.29-1.619c1.778-.421,3.534-.432,4.944,1.01a4.583,4.583,0,0,1,1.235,3.221q.084,4.094.064,8.19c0,.319-.11.438-.435.434q-1.6-.021-3.206,0c-.311,0-.409-.114-.406-.42.012-2.213.006-4.425.013-6.638a3.31,3.31,0,0,0-.16-1.114,1.813,1.813,0,0,0-1.5-1.319,2.083,2.083,0,0,0-2.1.722,2.655,2.655,0,0,0-.559,1.687q0,3.254-.014,6.508c0,.568,0,.569-.582.569q-1.489,0-2.979,0c-.439,0-.469-.026-.467-.452q.024-5.974.046-11.947c0-.266.093-.367.355-.365q1.554.006,3.108,0c.271,0,.357.121.347.377C132.871,123.641,132.881,124.028,132.881,124.414Z" transform="translate(-115.374 -109.579)" fill="#5d7780"/>
      <path id="Path_8" data-name="Path 8" d="M72.588,132.518q0,2.961,0,5.921c0,.414-.025.441-.439.442q-1.57,0-3.139,0c-.416,0-.451-.033-.452-.436q0-5.905,0-11.81c0-.431.031-.458.461-.459q1.537,0,3.073,0c.482,0,.494.014.494.486Q72.589,129.59,72.588,132.518Z" transform="translate(-61.3 -112.822)" fill="#5d7780"/>
      <path id="Path_9" data-name="Path 9" d="M70.17,68.51a2.342,2.342,0,1,1-2.335-2.36A2.361,2.361,0,0,1,70.17,68.51Z" transform="translate(-58.556 -59.149)" fill="#5d7780"/>
    </g>
  </g>
</svg>
