<svg id="socMedia" xmlns="http://www.w3.org/2000/svg" width="49" height="50" viewBox="0 0 49 50">
  <g id="Rectangle" fill="#fff" stroke="#5d7780" stroke-miterlimit="10" stroke-width="1">
    <rect width="49" height="50" rx="5" stroke="none"/>
    <rect x="0.5" y="0.5" width="48" height="49" rx="4.5" fill="none"/>
  </g>
  <g id="ZvwkSH.tif_1_" transform="translate(6.987 9.016)">
    <g id="Group_7" data-name="Group 7" transform="translate(0.013 -0.016)">
      <path id="Path_11" data-name="Path 11" d="M26.845,9.6c-.049,1.052-.106,2.1-.145,3.156-.023.607.143.759.747.642a5.226,5.226,0,0,0,1.089-.342,1.961,1.961,0,0,1,1.876.166,1.247,1.247,0,0,1,.2,2.135,5.157,5.157,0,0,1-1.836.928,8.869,8.869,0,0,0-1.013.392,1.168,1.168,0,0,0-.672,1.775,11.157,11.157,0,0,0,2.954,4,8.478,8.478,0,0,0,3.719,1.85c.934.211,1.127.947.464,1.641a3.373,3.373,0,0,1-1.36.776,12.69,12.69,0,0,1-2.432.589.648.648,0,0,0-.61.586c-.038.214-.082.429-.133.64-.231.96-.55,1.17-1.51,1.023-.646-.1-1.293-.172-1.948-.21a5.377,5.377,0,0,0-3.7,1.175,9.5,9.5,0,0,1-3.072,1.726,7.153,7.153,0,0,1-6.155-.893,12.252,12.252,0,0,1-1.211-.834,5.745,5.745,0,0,0-4.68-1.1c-.414.052-.824.146-1.24.18-.683.056-1.09-.134-1.145-.8-.1-1.252-.8-1.609-1.908-1.7a5.9,5.9,0,0,1-2.013-.655,2.349,2.349,0,0,1-.779-.585.871.871,0,0,1,.486-1.55c3.282-.735,5.3-2.92,6.7-5.814.43-.89.2-1.418-.7-1.848a8.562,8.562,0,0,0-.965-.368,4.988,4.988,0,0,1-1.875-.966,1.211,1.211,0,0,1,.113-2,1.73,1.73,0,0,1,1.845-.247,3.485,3.485,0,0,0,1.306.36c.611.032.7-.059.694-.659-.023-1.271-.13-2.538-.141-3.811a8.44,8.44,0,0,1,3.094-6.8,9.015,9.015,0,0,1,4.9-2.068,10.253,10.253,0,0,1,6.737,1.227,8.284,8.284,0,0,1,4.287,7.2c.01.363,0,.727,0,1.09Zm-.926.409c0-.6,0-1.016,0-1.434a7.105,7.105,0,0,0-3.473-6.246,9.278,9.278,0,0,0-9.228-.563A7.234,7.234,0,0,0,8.707,8.76q-.007,2.155.128,4.3c.051.843-.25,1.165-1.1,1.26a3.8,3.8,0,0,1-1.962-.356,1.045,1.045,0,0,0-.893-.06c-.187.084-.373.164-.41.394a.5.5,0,0,0,.27.494,5.076,5.076,0,0,0,1.533.692,6.009,6.009,0,0,1,1.206.5,1.908,1.908,0,0,1,.945,2.628A10.633,10.633,0,0,1,1.5,25.075c-.148.043-.389.012-.409.2-.021.207.213.272.371.35a8.625,8.625,0,0,0,2.6.773c1.23.175,1.383.294,1.629,1.505.167.825.275.905,1.1.728a8.478,8.478,0,0,1,3.136-.086,6.736,6.736,0,0,1,3.034,1.528,6.844,6.844,0,0,0,5.879,1.437A7.609,7.609,0,0,0,21.9,29.888a6.843,6.843,0,0,1,5.859-1.29c.983.191.989.185,1.191-.777.226-1.082.412-1.244,1.487-1.406a9.431,9.431,0,0,0,2.664-.753c.176-.083.444-.148.435-.361-.011-.249-.309-.2-.483-.248a10.7,10.7,0,0,1-6.9-6.565,1.8,1.8,0,0,1,.619-2.241,4.315,4.315,0,0,1,1.51-.736,5.951,5.951,0,0,0,1.4-.584c.241-.149.561-.286.461-.654s-.432-.414-.737-.462a2.087,2.087,0,0,0-1.042.27,2.572,2.572,0,0,1-2.113.048.759.759,0,0,1-.483-.813C25.83,12.156,25.965,11,25.919,10.013Z" transform="translate(-0.013 0.016)" fill="#5d7780"/>
    </g>
  </g>
</svg>
