<svg id="socMedia" xmlns="http://www.w3.org/2000/svg" width="49" height="50" viewBox="0 0 49 50">
  <g id="Rectangle" fill="#fff" stroke="#5d7780" stroke-miterlimit="10" stroke-width="1">
    <rect width="49" height="50" rx="5" stroke="none"/>
    <rect x="0.5" y="0.5" width="48" height="49" rx="4.5" fill="none"/>
  </g>
  <g id="_x39_wQSEz.tif_1_" transform="translate(8.99 12)">
    <g id="Group_4" data-name="Group 4" transform="translate(0.01)">
      <path id="Path_5" data-name="Path 5" d="M21.058,0h2.049a7.529,7.529,0,0,1,3.578,1.867c.2.2.431.136.658.078A14.271,14.271,0,0,0,30.462.788c.145-.076.315-.292.467-.132.13.136-.038.335-.1.5a6.684,6.684,0,0,1-1.836,2.427c-.111.1-.294.151-.291.377a1.4,1.4,0,0,0,.683-.047c.883-.17,1.7-.563,2.571-.77v.108a.926.926,0,0,0-.16.143A13.67,13.67,0,0,1,29,6.3a.87.87,0,0,0-.284.776A19.406,19.406,0,0,1,26.2,16.734a18.1,18.1,0,0,1-10.47,8.638,26.715,26.715,0,0,1-3.946.814H8.226c-.175-.034-.35-.078-.527-.1a19.151,19.151,0,0,1-7.161-2.4.989.989,0,0,1-.528-.471,13.347,13.347,0,0,0,9.441-2.689c-.289-.036-.429-.05-.567-.07a6.569,6.569,0,0,1-5.2-3.832c-.091-.188-.249-.408-.109-.607s.4-.116.6-.082a4.89,4.89,0,0,0,1.9-.154c-.2-.084-.282-.122-.364-.151a6.518,6.518,0,0,1-4.548-5.34A4.931,4.931,0,0,1,1.1,9.647c-.014-.294.111-.394.4-.277a8.211,8.211,0,0,0,1.013.367,1.782,1.782,0,0,0,1.176.11c-.162-.149-.278-.259-.4-.366A6.73,6.73,0,0,1,1.75,1.745c.259-.545.329-.559.722-.1A16.1,16.1,0,0,0,4.617,3.772,18.391,18.391,0,0,0,14.925,8.016c.465.038.643-.044.579-.576a6.464,6.464,0,0,1,2.4-5.993A7.465,7.465,0,0,1,21.058,0Z" transform="translate(-0.01)" fill="#5d7780"/>
    </g>
  </g>
</svg>
