<svg id="socMedia" xmlns="http://www.w3.org/2000/svg" width="49" height="50" viewBox="0 0 49 50">
  <g id="Rectangle" fill="#fff" stroke="#5d7780" stroke-miterlimit="10" stroke-width="1">
    <rect width="49" height="50" rx="5" stroke="none"/>
    <rect x="0.5" y="0.5" width="48" height="49" rx="4.5" fill="none"/>
  </g>
  <g id="OPOn0C.tif_1_" transform="translate(7.014 12.998)">
    <g id="Group_6" data-name="Group 6" transform="translate(-0.014 0.002)">
      <path id="Path_10" data-name="Path 10" d="M19.7,24.787H16.34a1.925,1.925,0,0,0-.693-.056c-3.543-.03-7.087,0-10.618-.384A4.58,4.58,0,0,1,.642,20.571,23.817,23.817,0,0,1,.1,16a57.863,57.863,0,0,1,0-7.261A24.593,24.593,0,0,1,.644,4.172,4.64,4.64,0,0,1,4.573.448C5.236.371,5.9.316,6.569.269,9.889.035,13.217.055,16.541.012c2.734-.036,5.471.03,8.2.086a57.04,57.04,0,0,1,5.861.343,4.319,4.319,0,0,1,3.749,2.873,10.99,10.99,0,0,1,.674,3.27c.068,1.036.167,2.07.253,3.1v5.405c-.025.261-.053.522-.075.783a26.821,26.821,0,0,1-.579,4.79,4.542,4.542,0,0,1-4.287,3.7c-3.308.318-6.628.366-9.948.369A1.88,1.88,0,0,0,19.7,24.787Zm-5.59-12.779q0,2.074,0,4.147c0,.605.05.631.6.347q1.1-.565,2.195-1.136c1.643-.85,3.283-1.705,4.928-2.549.322-.165.362-.311.037-.507-.159-.1-.311-.207-.466-.31q-3.379-2.242-6.762-4.479c-.436-.287-.532-.223-.534.294C14.106,9.213,14.108,10.61,14.109,12.008Z" transform="translate(0.014 -0.002)" fill="#5d7780"/>
    </g>
  </g>
</svg>
